<svg width="92" height="20" viewBox="0 0 92 20" fill="none" xmlns="http://www.w3.org/2000/svg">
<mask id="mask0_4_26" style="mask-type:alpha" maskUnits="userSpaceOnUse" x="0" y="0" width="92" height="20">
<path d="M89 0H3C1.34315 0 0 1.34315 0 3V17C0 18.6569 1.34315 20 3 20H89C90.6569 20 92 18.6569 92 17V3C92 1.34315 90.6569 0 89 0Z" fill="white"/>
</mask>
<g mask="url(#mask0_4_26)">
<path d="M0 0H34V20H0V0Z" fill="#555555"/>
<path d="M34 0H92V20H34V0Z" fill="#3F72F4"/>
<path d="M0 0H92V20H0V0Z" fill="url(#paint0_linear_4_26)"/>
<path d="M8.8623 14.125C8.2998 14.125 7.81543 13.9922 7.40918 13.7266C7.00293 13.4609 6.69043 13.0951 6.47168 12.6289C6.25293 12.1628 6.14355 11.6302 6.14355 11.0312C6.14355 10.4219 6.25553 9.88411 6.47949 9.41797C6.70605 8.94922 7.02116 8.58333 7.4248 8.32031C7.83105 8.05469 8.30501 7.92188 8.84668 7.92188C9.26855 7.92188 9.64876 8 9.9873 8.15625C10.3258 8.3125 10.6032 8.53125 10.8193 8.8125C11.0355 9.09375 11.1696 9.42187 11.2217 9.79687H10.2998C10.2295 9.52344 10.0732 9.28125 9.83105 9.07031C9.59147 8.85677 9.26855 8.75 8.8623 8.75C8.50293 8.75 8.18783 8.84375 7.91699 9.03125C7.64876 9.21615 7.43913 9.47786 7.28809 9.81641C7.13965 10.1523 7.06543 10.5469 7.06543 11C7.06543 11.4635 7.13835 11.8672 7.28418 12.2109C7.43262 12.5547 7.64095 12.8216 7.90918 13.0117C8.18001 13.2018 8.49772 13.2969 8.8623 13.2969C9.10189 13.2969 9.31934 13.2552 9.51465 13.1719C9.70996 13.0885 9.87533 12.9688 10.0107 12.8125C10.1462 12.6562 10.2425 12.4687 10.2998 12.25H11.2217C11.1696 12.6042 11.0407 12.9232 10.835 13.207C10.6318 13.4883 10.3623 13.7122 10.0264 13.8789C9.69303 14.043 9.30501 14.125 8.8623 14.125ZM13.4912 10.3906V14H12.5693V6H13.4912V8.9375H13.5693C13.71 8.6276 13.9209 8.38151 14.2021 8.19922C14.486 8.01432 14.8636 7.92188 15.335 7.92188C15.7438 7.92188 16.1019 8.00391 16.4092 8.16797C16.7165 8.32943 16.9548 8.57812 17.124 8.91406C17.2959 9.2474 17.3818 9.67187 17.3818 10.1875V14H16.46V10.25C16.46 9.77344 16.3363 9.40495 16.0889 9.14453C15.8441 8.88151 15.5042 8.75 15.0693 8.75C14.7673 8.75 14.4964 8.8138 14.2568 8.94141C14.0199 9.06901 13.8324 9.25521 13.6943 9.5C13.5589 9.74479 13.4912 10.0417 13.4912 10.3906ZM20.834 14.1406C20.4538 14.1406 20.1087 14.069 19.7988 13.9258C19.4889 13.7799 19.2428 13.5703 19.0605 13.2969C18.8783 13.0208 18.7871 12.6875 18.7871 12.2969C18.7871 11.9531 18.8548 11.6745 18.9902 11.4609C19.1257 11.2448 19.3066 11.0755 19.5332 10.9531C19.7598 10.8307 20.0098 10.7396 20.2832 10.6797C20.5592 10.6172 20.8366 10.5677 21.1152 10.5313C21.4798 10.4844 21.7754 10.4492 22.002 10.4258C22.2311 10.3997 22.3978 10.3568 22.502 10.2969C22.6087 10.237 22.6621 10.1328 22.6621 9.98437V9.95312C22.6621 9.56771 22.5566 9.26823 22.3457 9.05469C22.1374 8.84115 21.821 8.73437 21.3965 8.73437C20.9564 8.73437 20.6113 8.83073 20.3613 9.02344C20.1113 9.21615 19.9355 9.42187 19.834 9.64062L18.959 9.32812C19.1152 8.96354 19.3236 8.67969 19.584 8.47656C19.847 8.27083 20.1335 8.1276 20.4434 8.04687C20.7559 7.96354 21.0632 7.92188 21.3652 7.92188C21.5579 7.92188 21.7793 7.94531 22.0293 7.99219C22.2819 8.03646 22.5254 8.12891 22.7598 8.26953C22.9967 8.41016 23.1934 8.6224 23.3496 8.90625C23.5059 9.1901 23.584 9.57031 23.584 10.0469V14H22.6621V13.1875H22.6152C22.5527 13.3177 22.4486 13.457 22.3027 13.6055C22.1569 13.7539 21.9629 13.8802 21.7207 13.9844C21.4785 14.0885 21.1829 14.1406 20.834 14.1406ZM20.9746 13.3125C21.3392 13.3125 21.6465 13.2409 21.8965 13.0977C22.1491 12.9544 22.3392 12.7695 22.4668 12.543C22.597 12.3164 22.6621 12.0781 22.6621 11.8281V10.9844C22.623 11.0312 22.5371 11.0742 22.4043 11.1133C22.2741 11.1497 22.123 11.1823 21.9512 11.2109C21.7819 11.237 21.6165 11.2604 21.4551 11.2812C21.2962 11.2995 21.1673 11.3151 21.0684 11.3281C20.8288 11.3594 20.6048 11.4102 20.3965 11.4805C20.1908 11.5482 20.0241 11.651 19.8965 11.7891C19.7715 11.9245 19.709 12.1094 19.709 12.3437C19.709 12.6641 19.8275 12.9062 20.0645 13.0703C20.304 13.2318 20.6074 13.3125 20.9746 13.3125ZM27.876 8V8.78125H24.7666V8H27.876ZM25.6729 6.5625H26.5947V12.2812C26.5947 12.5417 26.6325 12.737 26.708 12.8672C26.7861 12.9948 26.8851 13.0807 27.0049 13.125C27.1273 13.1667 27.2562 13.1875 27.3916 13.1875C27.4932 13.1875 27.5765 13.1823 27.6416 13.1719C27.7067 13.1589 27.7588 13.1484 27.7979 13.1406L27.9854 13.9687C27.9229 13.9922 27.8356 14.0156 27.7236 14.0391C27.6117 14.0651 27.4697 14.0781 27.2979 14.0781C27.0374 14.0781 26.7822 14.0221 26.5322 13.9102C26.2848 13.7982 26.0791 13.6276 25.915 13.3984C25.7536 13.1693 25.6729 12.8802 25.6729 12.5312V6.5625Z" fill="white"/>
<path d="M43.5024 8V8.78125H40.3931V8H43.5024ZM41.2993 6.5625H42.2212V12.2812C42.2212 12.5417 42.259 12.737 42.3345 12.8672C42.4126 12.9948 42.5116 13.0807 42.6313 13.125C42.7537 13.1667 42.8826 13.1875 43.0181 13.1875C43.1196 13.1875 43.203 13.1823 43.2681 13.1719C43.3332 13.1589 43.3853 13.1484 43.4243 13.1406L43.6118 13.9687C43.5493 13.9922 43.4621 14.0156 43.3501 14.0391C43.2381 14.0651 43.0962 14.0781 42.9243 14.0781C42.6639 14.0781 42.4087 14.0221 42.1587 13.9102C41.9113 13.7982 41.7056 13.6276 41.5415 13.3984C41.38 13.1693 41.2993 12.8802 41.2993 12.5312V6.5625ZM47.3403 14.125C46.7622 14.125 46.2635 13.9974 45.8442 13.7422C45.4276 13.4844 45.106 13.125 44.8794 12.6641C44.6554 12.2005 44.5435 11.6615 44.5435 11.0469C44.5435 10.4323 44.6554 9.89062 44.8794 9.42187C45.106 8.95052 45.4211 8.58333 45.8247 8.32031C46.231 8.05469 46.7049 7.92188 47.2466 7.92188C47.5591 7.92188 47.8677 7.97396 48.1724 8.07812C48.4771 8.18229 48.7544 8.35156 49.0044 8.58594C49.2544 8.81771 49.4536 9.125 49.6021 9.50781C49.7505 9.89062 49.8247 10.362 49.8247 10.9219V11.3125H45.1997V10.5156H48.8872C48.8872 10.1771 48.8195 9.875 48.6841 9.60937C48.5513 9.34375 48.3612 9.13411 48.1138 8.98047C47.869 8.82682 47.5799 8.75 47.2466 8.75C46.8794 8.75 46.5617 8.84115 46.2935 9.02344C46.0278 9.20312 45.8234 9.4375 45.6802 9.72656C45.5369 10.0156 45.4653 10.3255 45.4653 10.6562V11.1875C45.4653 11.6406 45.5435 12.0247 45.6997 12.3398C45.8586 12.6523 46.0786 12.8906 46.3599 13.0547C46.6411 13.2161 46.9679 13.2969 47.3403 13.2969C47.5825 13.2969 47.8013 13.263 47.9966 13.1953C48.1945 13.125 48.3651 13.0208 48.5083 12.8828C48.6515 12.7422 48.7622 12.5677 48.8403 12.3594L49.731 12.6094C49.6372 12.9115 49.4797 13.1771 49.2583 13.4062C49.0369 13.6328 48.7635 13.8099 48.438 13.9375C48.1125 14.0625 47.7466 14.125 47.3403 14.125ZM52.1489 6V14H51.2271V6H52.1489ZM56.353 14.125C55.7749 14.125 55.2762 13.9974 54.8569 13.7422C54.4403 13.4844 54.1187 13.125 53.8921 12.6641C53.6681 12.2005 53.5562 11.6615 53.5562 11.0469C53.5562 10.4323 53.6681 9.89062 53.8921 9.42187C54.1187 8.95052 54.4338 8.58333 54.8374 8.32031C55.2437 8.05469 55.7176 7.92188 56.2593 7.92188C56.5718 7.92188 56.8804 7.97396 57.1851 8.07812C57.4897 8.18229 57.7671 8.35156 58.0171 8.58594C58.2671 8.81771 58.4663 9.125 58.6147 9.50781C58.7632 9.89062 58.8374 10.362 58.8374 10.9219V11.3125H54.2124V10.5156H57.8999C57.8999 10.1771 57.8322 9.875 57.6968 9.60937C57.564 9.34375 57.3739 9.13411 57.1265 8.98047C56.8817 8.82682 56.5926 8.75 56.2593 8.75C55.8921 8.75 55.5744 8.84115 55.3062 9.02344C55.0405 9.20312 54.8361 9.4375 54.6929 9.72656C54.5496 10.0156 54.478 10.3255 54.478 10.6562V11.1875C54.478 11.6406 54.5562 12.0247 54.7124 12.3398C54.8713 12.6523 55.0913 12.8906 55.3726 13.0547C55.6538 13.2161 55.9806 13.2969 56.353 13.2969C56.5952 13.2969 56.814 13.263 57.0093 13.1953C57.2072 13.125 57.3778 13.0208 57.521 12.8828C57.6642 12.7422 57.7749 12.5677 57.853 12.3594L58.7437 12.6094C58.6499 12.9115 58.4924 13.1771 58.271 13.4062C58.0496 13.6328 57.7762 13.8099 57.4507 13.9375C57.1252 14.0625 56.7593 14.125 56.353 14.125ZM62.6616 16.375C62.2163 16.375 61.8335 16.3177 61.5132 16.2031C61.1929 16.0911 60.9259 15.9427 60.7124 15.7578C60.5015 15.5755 60.3335 15.3802 60.2085 15.1719L60.9429 14.6563C61.0262 14.7656 61.1317 14.8906 61.2593 15.0312C61.3869 15.1745 61.5614 15.2982 61.7827 15.4023C62.0067 15.5091 62.2996 15.5625 62.6616 15.5625C63.146 15.5625 63.5457 15.4453 63.8608 15.2109C64.1759 14.9766 64.3335 14.6094 64.3335 14.1094V12.8906H64.2554C64.1877 13 64.0913 13.1354 63.9663 13.2969C63.8439 13.4557 63.6668 13.5977 63.4351 13.7227C63.2059 13.8451 62.896 13.9062 62.5054 13.9062C62.021 13.9062 61.5861 13.7917 61.2007 13.5625C60.8179 13.3333 60.5145 13 60.2905 12.5625C60.0692 12.125 59.9585 11.5937 59.9585 10.9687C59.9585 10.3542 60.0666 9.81901 60.2827 9.36328C60.4989 8.90495 60.7996 8.55078 61.1851 8.30078C61.5705 8.04818 62.0158 7.92188 62.521 7.92188C62.9116 7.92188 63.2215 7.98698 63.4507 8.11719C63.6825 8.24479 63.8595 8.39062 63.9819 8.55469C64.1069 8.71615 64.2033 8.84896 64.271 8.95312H64.3647V8H65.2554V14.1719C65.2554 14.6875 65.1382 15.1068 64.9038 15.4297C64.672 15.7552 64.3595 15.9935 63.9663 16.1445C63.5757 16.2982 63.1408 16.375 62.6616 16.375ZM62.6304 13.0781C63.0002 13.0781 63.3127 12.9935 63.5679 12.8242C63.8231 12.6549 64.0171 12.4115 64.1499 12.0938C64.2827 11.776 64.3491 11.3958 64.3491 10.9531C64.3491 10.5208 64.284 10.1393 64.1538 9.80859C64.0236 9.47786 63.8309 9.21875 63.5757 9.03125C63.3205 8.84375 63.0054 8.75 62.6304 8.75C62.2397 8.75 61.9142 8.84896 61.6538 9.04687C61.396 9.24479 61.202 9.51042 61.0718 9.84375C60.9442 10.1771 60.8804 10.5469 60.8804 10.9531C60.8804 11.3698 60.9455 11.7383 61.0757 12.0586C61.2085 12.3763 61.4038 12.6263 61.6616 12.8086C61.922 12.9883 62.245 13.0781 62.6304 13.0781ZM66.9429 14V8H67.8335V8.90625H67.896C68.0054 8.60938 68.2033 8.36849 68.4897 8.18359C68.7762 7.9987 69.0991 7.90625 69.4585 7.90625C69.5262 7.90625 69.6108 7.90755 69.7124 7.91016C69.814 7.91276 69.8908 7.91667 69.9429 7.92188V8.85937C69.9116 8.85156 69.84 8.83984 69.728 8.82422C69.6187 8.80599 69.5028 8.79687 69.3804 8.79687C69.0887 8.79687 68.8283 8.85807 68.5991 8.98047C68.3726 9.10026 68.1929 9.26693 68.0601 9.48047C67.9299 9.69141 67.8647 9.93229 67.8647 10.2031V14H66.9429ZM72.8013 14.1406C72.4211 14.1406 72.076 14.069 71.7661 13.9258C71.4562 13.7799 71.2101 13.5703 71.0278 13.2969C70.8455 13.0208 70.7544 12.6875 70.7544 12.2969C70.7544 11.9531 70.8221 11.6745 70.9575 11.4609C71.0929 11.2448 71.2739 11.0755 71.5005 10.9531C71.7271 10.8307 71.9771 10.7396 72.2505 10.6797C72.5265 10.6172 72.8039 10.5677 73.0825 10.5313C73.4471 10.4844 73.7427 10.4492 73.9692 10.4258C74.1984 10.3997 74.3651 10.3568 74.4692 10.2969C74.576 10.237 74.6294 10.1328 74.6294 9.98437V9.95312C74.6294 9.56771 74.5239 9.26823 74.313 9.05469C74.1047 8.84115 73.7882 8.73437 73.3638 8.73437C72.9237 8.73437 72.5786 8.83073 72.3286 9.02344C72.0786 9.21615 71.9028 9.42187 71.8013 9.64062L70.9263 9.32812C71.0825 8.96354 71.2909 8.67969 71.5513 8.47656C71.8143 8.27083 72.1007 8.1276 72.4106 8.04687C72.7231 7.96354 73.0304 7.92188 73.3325 7.92188C73.5252 7.92188 73.7466 7.94531 73.9966 7.99219C74.2492 8.03646 74.4927 8.12891 74.7271 8.26953C74.964 8.41016 75.1606 8.6224 75.3169 8.90625C75.4731 9.1901 75.5513 9.57031 75.5513 10.0469V14H74.6294V13.1875H74.5825C74.52 13.3177 74.4159 13.457 74.27 13.6055C74.1242 13.7539 73.9302 13.8802 73.688 13.9844C73.4458 14.0885 73.1502 14.1406 72.8013 14.1406ZM72.9419 13.3125C73.3065 13.3125 73.6138 13.2409 73.8638 13.0977C74.1164 12.9544 74.3065 12.7695 74.4341 12.543C74.5643 12.3164 74.6294 12.0781 74.6294 11.8281V10.9844C74.5903 11.0312 74.5044 11.0742 74.3716 11.1133C74.2414 11.1497 74.0903 11.1823 73.9185 11.2109C73.7492 11.237 73.5838 11.2604 73.4224 11.2812C73.2635 11.2995 73.1346 11.3151 73.0356 11.3281C72.7961 11.3594 72.5721 11.4102 72.3638 11.4805C72.158 11.5482 71.9914 11.651 71.8638 11.7891C71.7388 11.9245 71.6763 12.1094 71.6763 12.3437C71.6763 12.6641 71.7948 12.9062 72.0317 13.0703C72.2713 13.2318 72.5747 13.3125 72.9419 13.3125ZM77.2339 14V8H78.1245V8.9375H78.2026C78.3276 8.61719 78.5295 8.36849 78.8081 8.19141C79.0868 8.01172 79.4214 7.92188 79.812 7.92188C80.2078 7.92188 80.5373 8.01172 80.8003 8.19141C81.0659 8.36849 81.2729 8.61719 81.4214 8.9375H81.4839C81.6375 8.6276 81.868 8.38151 82.1753 8.19922C82.4826 8.01432 82.8511 7.92188 83.2808 7.92188C83.8172 7.92188 84.256 8.08984 84.5972 8.42578C84.9383 8.75911 85.1089 9.27865 85.1089 9.98437V14H84.187V9.98437C84.187 9.54167 84.0659 9.22526 83.8237 9.03516C83.5815 8.84505 83.2964 8.75 82.9683 8.75C82.5464 8.75 82.2196 8.8776 81.9878 9.13281C81.756 9.38542 81.6401 9.70573 81.6401 10.0937V14H80.7026V9.89062C80.7026 9.54948 80.592 9.27474 80.3706 9.06641C80.1493 8.85547 79.8641 8.75 79.5151 8.75C79.2756 8.75 79.0516 8.8138 78.8433 8.94141C78.6375 9.06901 78.4709 9.24609 78.3433 9.47266C78.2183 9.69661 78.1558 9.95573 78.1558 10.25V14H77.2339Z" fill="white"/>
</g>
<defs>
<linearGradient id="paint0_linear_4_26" x1="0" y1="0" x2="0" y2="20" gradientUnits="userSpaceOnUse">
<stop stop-color="#BBBBBB" stop-opacity="0.1"/>
<stop offset="1" stop-opacity="0.1"/>
</linearGradient>
</defs>
</svg>
