<svg width="153" height="20" viewBox="0 0 153 20" fill="none" xmlns="http://www.w3.org/2000/svg">
<mask id="mask0_4_14" style="mask-type:alpha" maskUnits="userSpaceOnUse" x="0" y="0" width="153" height="20">
<path d="M150 0H3C1.34315 0 0 1.34315 0 3V17C0 18.6569 1.34315 20 3 20H150C151.657 20 153 18.6569 153 17V3C153 1.34315 151.657 0 150 0Z" fill="white"/>
</mask>
<g mask="url(#mask0_4_14)">
<path d="M48 0H0V20H48V0Z" fill="#555555"/>
<path d="M153 0H48V20H153V0Z" fill="#428F7E"/>
<path d="M153 0H0V20H153V0Z" fill="url(#paint0_linear_4_14)"/>
<path d="M8.26563 6V14H7.34375V6H8.26563ZM9.9541 14V8H10.876V14H9.9541ZM10.4229 7C10.2432 7 10.0882 6.9388 9.95801 6.81641C9.8304 6.69401 9.7666 6.54688 9.7666 6.375C9.7666 6.20313 9.8304 6.05599 9.95801 5.93359C10.0882 5.8112 10.2432 5.75 10.4229 5.75C10.6025 5.75 10.7562 5.8112 10.8838 5.93359C11.014 6.05599 11.0791 6.20313 11.0791 6.375C11.0791 6.54688 11.014 6.69401 10.8838 6.81641C10.7562 6.9388 10.6025 7 10.4229 7ZM15.002 14.125C14.4395 14.125 13.9551 13.9922 13.5488 13.7266C13.1426 13.4609 12.8301 13.0951 12.6113 12.6289C12.3926 12.1628 12.2832 11.6302 12.2832 11.0312C12.2832 10.4219 12.3952 9.88411 12.6191 9.41797C12.8457 8.94922 13.1608 8.58333 13.5645 8.32031C13.9707 8.05469 14.4447 7.92188 14.9863 7.92188C15.4082 7.92188 15.7884 8 16.127 8.15625C16.4655 8.3125 16.7428 8.53125 16.959 8.8125C17.1751 9.09375 17.3092 9.42187 17.3613 9.79687H16.4395C16.3691 9.52344 16.2129 9.28125 15.9707 9.07031C15.7311 8.85677 15.4082 8.75 15.002 8.75C14.6426 8.75 14.3275 8.84375 14.0566 9.03125C13.7884 9.21615 13.5788 9.47786 13.4277 9.81641C13.2793 10.1523 13.2051 10.5469 13.2051 11C13.2051 11.4635 13.278 11.8672 13.4238 12.2109C13.5723 12.5547 13.7806 12.8216 14.0488 13.0117C14.3197 13.2018 14.6374 13.2969 15.002 13.2969C15.2415 13.2969 15.459 13.2552 15.6543 13.1719C15.8496 13.0885 16.015 12.9688 16.1504 12.8125C16.2858 12.6562 16.3822 12.4687 16.4395 12.25H17.3613C17.3092 12.6042 17.1803 12.9232 16.9746 13.207C16.7715 13.4883 16.502 13.7122 16.166 13.8789C15.8327 14.043 15.4447 14.125 15.002 14.125ZM21.2246 14.125C20.6465 14.125 20.1478 13.9974 19.7285 13.7422C19.3118 13.4844 18.9902 13.125 18.7637 12.6641C18.5397 12.2005 18.4277 11.6615 18.4277 11.0469C18.4277 10.4323 18.5397 9.89062 18.7637 9.42187C18.9902 8.95052 19.3053 8.58333 19.709 8.32031C20.1152 8.05469 20.5892 7.92188 21.1309 7.92188C21.4434 7.92188 21.752 7.97396 22.0566 8.07812C22.3613 8.18229 22.6387 8.35156 22.8887 8.58594C23.1387 8.81771 23.3379 9.125 23.4863 9.50781C23.6348 9.89062 23.709 10.362 23.709 10.9219V11.3125H19.084V10.5156H22.7715C22.7715 10.1771 22.7038 9.875 22.5684 9.60937C22.4355 9.34375 22.2454 9.13411 21.998 8.98047C21.7533 8.82682 21.4642 8.75 21.1309 8.75C20.7637 8.75 20.446 8.84115 20.1777 9.02344C19.9121 9.20312 19.7077 9.4375 19.5645 9.72656C19.4212 10.0156 19.3496 10.3255 19.3496 10.6562V11.1875C19.3496 11.6406 19.4277 12.0247 19.584 12.3398C19.7428 12.6523 19.9629 12.8906 20.2441 13.0547C20.5254 13.2161 20.8522 13.2969 21.2246 13.2969C21.4668 13.2969 21.6855 13.263 21.8809 13.1953C22.0788 13.125 22.2493 13.0208 22.3926 12.8828C22.5358 12.7422 22.6465 12.5677 22.7246 12.3594L23.6152 12.6094C23.5215 12.9115 23.3639 13.1771 23.1426 13.4062C22.9212 13.6328 22.6478 13.8099 22.3223 13.9375C21.9967 14.0625 21.6309 14.125 21.2246 14.125ZM26.0332 10.3906V14H25.1113V8H26.002V8.9375H26.0801C26.2207 8.63281 26.4342 8.38802 26.7207 8.20313C27.0072 8.01563 27.377 7.92188 27.8301 7.92188C28.2363 7.92188 28.5918 8.00521 28.8965 8.17187C29.2012 8.33594 29.4382 8.58594 29.6074 8.92187C29.7767 9.25521 29.8613 9.67708 29.8613 10.1875V14H28.9395V10.25C28.9395 9.77865 28.8171 9.41146 28.5723 9.14844C28.3275 8.88281 27.9915 8.75 27.5645 8.75C27.2702 8.75 27.0072 8.8138 26.7754 8.94141C26.5462 9.06901 26.3652 9.25521 26.2324 9.5C26.0996 9.74479 26.0332 10.0417 26.0332 10.3906ZM35.7959 9.34375L34.9678 9.57812C34.9157 9.4401 34.8389 9.30599 34.7373 9.17578C34.6383 9.04297 34.5029 8.93359 34.3311 8.84766C34.1592 8.76172 33.9391 8.71875 33.6709 8.71875C33.3037 8.71875 32.9977 8.80339 32.7529 8.97266C32.5107 9.13932 32.3896 9.35156 32.3896 9.60937C32.3896 9.83854 32.473 10.0195 32.6396 10.1523C32.8063 10.2852 33.0667 10.3958 33.4209 10.4844L34.3115 10.7031C34.848 10.8333 35.2477 11.0326 35.5107 11.3008C35.7738 11.5664 35.9053 11.9089 35.9053 12.3281C35.9053 12.6719 35.8063 12.9792 35.6084 13.25C35.4131 13.5208 35.1396 13.7344 34.7881 13.8906C34.4365 14.0469 34.0277 14.125 33.5615 14.125C32.9495 14.125 32.443 13.9922 32.042 13.7266C31.641 13.4609 31.387 13.0729 31.2803 12.5625L32.1553 12.3437C32.2386 12.6667 32.3962 12.9089 32.6279 13.0703C32.8623 13.2318 33.1683 13.3125 33.5459 13.3125C33.9756 13.3125 34.3167 13.2214 34.5693 13.0391C34.8245 12.8542 34.9521 12.6328 34.9521 12.375C34.9521 12.1667 34.8792 11.9922 34.7334 11.8516C34.5876 11.7083 34.3636 11.6016 34.0615 11.5312L33.0615 11.2969C32.512 11.1667 32.1084 10.9648 31.8506 10.6914C31.5954 10.4154 31.4678 10.0703 31.4678 9.65625C31.4678 9.31771 31.5628 9.01823 31.7529 8.75781C31.9456 8.4974 32.2074 8.29297 32.5381 8.14453C32.8714 7.99609 33.249 7.92188 33.6709 7.92188C34.2646 7.92188 34.7308 8.05208 35.0693 8.3125C35.4105 8.57292 35.6527 8.91667 35.7959 9.34375ZM39.8086 14.125C39.2305 14.125 38.7318 13.9974 38.3125 13.7422C37.8958 13.4844 37.5742 13.125 37.3477 12.6641C37.1237 12.2005 37.0117 11.6615 37.0117 11.0469C37.0117 10.4323 37.1237 9.89062 37.3477 9.42187C37.5742 8.95052 37.8893 8.58333 38.293 8.32031C38.6992 8.05469 39.1732 7.92188 39.7148 7.92188C40.0273 7.92188 40.3359 7.97396 40.6406 8.07812C40.9453 8.18229 41.2227 8.35156 41.4727 8.58594C41.7227 8.81771 41.9219 9.125 42.0703 9.50781C42.2188 9.89062 42.293 10.362 42.293 10.9219V11.3125H37.668V10.5156H41.3555C41.3555 10.1771 41.2878 9.875 41.1523 9.60937C41.0195 9.34375 40.8294 9.13411 40.582 8.98047C40.3372 8.82682 40.0482 8.75 39.7148 8.75C39.3477 8.75 39.0299 8.84115 38.7617 9.02344C38.4961 9.20312 38.2917 9.4375 38.1484 9.72656C38.0052 10.0156 37.9336 10.3255 37.9336 10.6562V11.1875C37.9336 11.6406 38.0117 12.0247 38.168 12.3398C38.3268 12.6523 38.5469 12.8906 38.8281 13.0547C39.1094 13.2161 39.4362 13.2969 39.8086 13.2969C40.0508 13.2969 40.2695 13.263 40.4648 13.1953C40.6628 13.125 40.8333 13.0208 40.9766 12.8828C41.1198 12.7422 41.2305 12.5677 41.3086 12.3594L42.1992 12.6094C42.1055 12.9115 41.9479 13.1771 41.7266 13.4062C41.5052 13.6328 41.2318 13.8099 40.9062 13.9375C40.5807 14.0625 40.2148 14.125 39.8086 14.125Z" fill="white"/>
<path d="M63.291 8.5C63.2051 8.23698 63.0918 8.0013 62.9512 7.79297C62.8132 7.58203 62.6478 7.40234 62.4551 7.25391C62.265 7.10547 62.0488 6.99219 61.8066 6.91406C61.5645 6.83594 61.2988 6.79687 61.0098 6.79687C60.5358 6.79687 60.1048 6.91927 59.7168 7.16406C59.3288 7.40885 59.0202 7.76953 58.791 8.24609C58.5618 8.72266 58.4473 9.30729 58.4473 10C58.4473 10.6927 58.5632 11.2773 58.7949 11.7539C59.0267 12.2305 59.3405 12.5911 59.7363 12.8359C60.1322 13.0807 60.5775 13.2031 61.0723 13.2031C61.5306 13.2031 61.9342 13.1055 62.2832 12.9102C62.6348 12.7122 62.9082 12.4336 63.1035 12.0742C63.3014 11.7122 63.4004 11.2865 63.4004 10.7969L63.6973 10.8594H61.291V10H64.3379V10.8594C64.3379 11.5182 64.1973 12.0911 63.916 12.5781C63.6374 13.0651 63.252 13.4427 62.7598 13.7109C62.2702 13.9766 61.7077 14.1094 61.0723 14.1094C60.3639 14.1094 59.7415 13.9427 59.2051 13.6094C58.6712 13.276 58.2546 12.8021 57.9551 12.1875C57.6582 11.5729 57.5098 10.8437 57.5098 10C57.5098 9.36719 57.5944 8.79818 57.7637 8.29297C57.9355 7.78516 58.1777 7.35286 58.4902 6.99609C58.8027 6.63932 59.1725 6.36589 59.5996 6.17578C60.0267 5.98568 60.4967 5.89062 61.0098 5.89062C61.4316 5.89062 61.8249 5.95443 62.1895 6.08203C62.5566 6.20703 62.8835 6.38542 63.1699 6.61719C63.459 6.84635 63.6999 7.12109 63.8926 7.44141C64.0853 7.75911 64.2181 8.11198 64.291 8.5H63.291ZM65.9971 14V6H68.7002C69.3278 6 69.8408 6.11328 70.2393 6.33984C70.6403 6.5638 70.9372 6.86719 71.1299 7.25C71.3226 7.63281 71.4189 8.0599 71.4189 8.53125C71.4189 9.0026 71.3226 9.43099 71.1299 9.81641C70.9398 10.2018 70.6455 10.5091 70.2471 10.7383C69.8486 10.9648 69.3382 11.0781 68.7158 11.0781H66.7783V10.2188H68.6846C69.1143 10.2188 69.4593 10.1445 69.7197 9.99609C69.9801 9.84766 70.1689 9.64714 70.2861 9.39453C70.4059 9.13932 70.4658 8.85156 70.4658 8.53125C70.4658 8.21094 70.4059 7.92448 70.2861 7.67187C70.1689 7.41927 69.9788 7.22135 69.7158 7.07812C69.4528 6.93229 69.1038 6.85937 68.6689 6.85937H66.9658V14H65.9971ZM72.9795 14V6H73.9482V13.1406H77.667V14H72.9795ZM81.5449 9.57031V10.4297H78.0449V9.57031H81.5449ZM85.7256 14.1094C85.21 14.1094 84.7503 14.0208 84.3467 13.8437C83.9456 13.6667 83.6266 13.4206 83.3896 13.1055C83.1553 12.7878 83.0277 12.4193 83.0068 12H83.9912C84.012 12.2578 84.1006 12.4805 84.2568 12.668C84.4131 12.8529 84.6175 12.9961 84.8701 13.0977C85.1227 13.1992 85.4027 13.25 85.71 13.25C86.0537 13.25 86.3584 13.1901 86.624 13.0703C86.8896 12.9505 87.098 12.7839 87.249 12.5703C87.4001 12.3568 87.4756 12.1094 87.4756 11.8281C87.4756 11.5339 87.4027 11.2747 87.2568 11.0508C87.111 10.8242 86.8975 10.6471 86.6162 10.5195C86.335 10.3919 85.9912 10.3281 85.585 10.3281H84.9443V9.46875H85.585C85.9027 9.46875 86.1813 9.41146 86.4209 9.29687C86.6631 9.18229 86.8519 9.02083 86.9873 8.8125C87.1253 8.60417 87.1943 8.35937 87.1943 8.07812C87.1943 7.80729 87.1344 7.57161 87.0146 7.37109C86.8949 7.17057 86.7256 7.01432 86.5068 6.90234C86.2907 6.79036 86.0355 6.73437 85.7412 6.73437C85.4652 6.73437 85.2048 6.78516 84.96 6.88672C84.7178 6.98568 84.5199 7.13021 84.3662 7.32031C84.2126 7.50781 84.1292 7.73438 84.1162 8H83.1787C83.1943 7.58073 83.3206 7.21354 83.5576 6.89844C83.7946 6.58073 84.1045 6.33333 84.4873 6.15625C84.8727 5.97917 85.2959 5.89062 85.7568 5.89062C86.2516 5.89062 86.6761 5.99089 87.0303 6.19141C87.3844 6.38932 87.6566 6.65104 87.8467 6.97656C88.0368 7.30208 88.1318 7.65365 88.1318 8.03125C88.1318 8.48177 88.0133 8.86589 87.7764 9.18359C87.542 9.5013 87.223 9.72135 86.8193 9.84375V9.90625C87.3245 9.98958 87.7191 10.2044 88.0029 10.5508C88.2868 10.8945 88.4287 11.3203 88.4287 11.8281C88.4287 12.263 88.3102 12.6536 88.0732 13C87.8389 13.3437 87.5186 13.6146 87.1123 13.8125C86.7061 14.0104 86.2438 14.1094 85.7256 14.1094ZM90.4668 14.0625C90.2741 14.0625 90.1087 13.9935 89.9707 13.8555C89.8327 13.7174 89.7637 13.5521 89.7637 13.3594C89.7637 13.1667 89.8327 13.0013 89.9707 12.8633C90.1087 12.7253 90.2741 12.6562 90.4668 12.6562C90.6595 12.6562 90.8249 12.7253 90.9629 12.8633C91.1009 13.0013 91.1699 13.1667 91.1699 13.3594C91.1699 13.487 91.1374 13.6042 91.0723 13.7109C91.0098 13.8177 90.9251 13.9036 90.8184 13.9687C90.7142 14.0313 90.597 14.0625 90.4668 14.0625ZM95.1387 14.1094C94.5501 14.1094 94.0488 13.9492 93.6348 13.6289C93.2207 13.306 92.9043 12.8385 92.6855 12.2266C92.4668 11.612 92.3574 10.8698 92.3574 10C92.3574 9.13542 92.4668 8.39714 92.6855 7.78516C92.9069 7.17057 93.2246 6.70182 93.6387 6.37891C94.0553 6.05339 94.5553 5.89062 95.1387 5.89062C95.722 5.89062 96.2207 6.05339 96.6348 6.37891C97.0514 6.70182 97.3691 7.17057 97.5879 7.78516C97.8092 8.39714 97.9199 9.13542 97.9199 10C97.9199 10.8698 97.8105 11.612 97.5918 12.2266C97.373 12.8385 97.0566 13.306 96.6426 13.6289C96.2285 13.9492 95.7272 14.1094 95.1387 14.1094ZM95.1387 13.25C95.722 13.25 96.1751 12.9687 96.498 12.4062C96.821 11.8437 96.9824 11.0417 96.9824 10C96.9824 9.30729 96.9082 8.71745 96.7598 8.23047C96.6139 7.74349 96.403 7.3724 96.127 7.11719C95.8535 6.86198 95.5241 6.73437 95.1387 6.73437C94.5605 6.73437 94.1087 7.01953 93.7832 7.58984C93.4577 8.15755 93.2949 8.96094 93.2949 10C93.2949 10.6927 93.3678 11.2812 93.5137 11.7656C93.6595 12.25 93.8691 12.6185 94.1426 12.8711C94.4186 13.1237 94.7507 13.25 95.1387 13.25ZM102.857 10.1406V11H99.3574V10.1406H102.857ZM106.917 14.125C106.375 14.125 105.9 13.9961 105.491 13.7383C105.085 13.4805 104.767 13.1198 104.538 12.6562C104.312 12.1927 104.198 11.651 104.198 11.0312C104.198 10.4062 104.312 9.86068 104.538 9.39453C104.767 8.92839 105.085 8.56641 105.491 8.30859C105.9 8.05078 106.375 7.92188 106.917 7.92188C107.459 7.92188 107.933 8.05078 108.339 8.30859C108.748 8.56641 109.065 8.92839 109.292 9.39453C109.521 9.86068 109.636 10.4062 109.636 11.0312C109.636 11.651 109.521 12.1927 109.292 12.6562C109.065 13.1198 108.748 13.4805 108.339 13.7383C107.933 13.9961 107.459 14.125 106.917 14.125ZM106.917 13.2969C107.328 13.2969 107.667 13.1914 107.933 12.9805C108.198 12.7695 108.395 12.4922 108.522 12.1484C108.65 11.8047 108.714 11.4323 108.714 11.0312C108.714 10.6302 108.65 10.2565 108.522 9.91016C108.395 9.5638 108.198 9.28385 107.933 9.07031C107.667 8.85677 107.328 8.75 106.917 8.75C106.506 8.75 106.167 8.85677 105.901 9.07031C105.636 9.28385 105.439 9.5638 105.312 9.91016C105.184 10.2565 105.12 10.6302 105.12 11.0312C105.12 11.4323 105.184 11.8047 105.312 12.1484C105.439 12.4922 105.636 12.7695 105.901 12.9805C106.167 13.1914 106.506 13.2969 106.917 13.2969ZM111.043 14V8H111.934V8.90625H111.996C112.105 8.60938 112.303 8.36849 112.59 8.18359C112.876 7.9987 113.199 7.90625 113.559 7.90625C113.626 7.90625 113.711 7.90755 113.813 7.91016C113.914 7.91276 113.991 7.91667 114.043 7.92188V8.85937C114.012 8.85156 113.94 8.83984 113.828 8.82422C113.719 8.80599 113.603 8.79687 113.48 8.79687C113.189 8.79687 112.928 8.85807 112.699 8.98047C112.473 9.10026 112.293 9.26693 112.16 9.48047C112.03 9.69141 111.965 9.93229 111.965 10.2031V14H111.043ZM118.133 10.1406V11H114.633V10.1406H118.133ZM120.677 6V14H119.755V6H120.677ZM124.131 14.1406C123.751 14.1406 123.406 14.069 123.096 13.9258C122.786 13.7799 122.54 13.5703 122.357 13.2969C122.175 13.0208 122.084 12.6875 122.084 12.2969C122.084 11.9531 122.152 11.6745 122.287 11.4609C122.423 11.2448 122.604 11.0755 122.83 10.9531C123.057 10.8307 123.307 10.7396 123.58 10.6797C123.856 10.6172 124.133 10.5677 124.412 10.5313C124.777 10.4844 125.072 10.4492 125.299 10.4258C125.528 10.3997 125.695 10.3568 125.799 10.2969C125.906 10.237 125.959 10.1328 125.959 9.98437V9.95312C125.959 9.56771 125.854 9.26823 125.643 9.05469C125.434 8.84115 125.118 8.73437 124.693 8.73437C124.253 8.73437 123.908 8.83073 123.658 9.02344C123.408 9.21615 123.232 9.42187 123.131 9.64062L122.256 9.32812C122.412 8.96354 122.62 8.67969 122.881 8.47656C123.144 8.27083 123.43 8.1276 123.74 8.04687C124.053 7.96354 124.36 7.92188 124.662 7.92188C124.855 7.92188 125.076 7.94531 125.326 7.99219C125.579 8.03646 125.822 8.12891 126.057 8.26953C126.294 8.41016 126.49 8.6224 126.646 8.90625C126.803 9.1901 126.881 9.57031 126.881 10.0469V14H125.959V13.1875H125.912C125.85 13.3177 125.745 13.457 125.6 13.6055C125.454 13.7539 125.26 13.8802 125.018 13.9844C124.775 14.0885 124.48 14.1406 124.131 14.1406ZM124.271 13.3125C124.636 13.3125 124.943 13.2409 125.193 13.0977C125.446 12.9544 125.636 12.7695 125.764 12.543C125.894 12.3164 125.959 12.0781 125.959 11.8281V10.9844C125.92 11.0312 125.834 11.0742 125.701 11.1133C125.571 11.1497 125.42 11.1823 125.248 11.2109C125.079 11.237 124.913 11.2604 124.752 11.2812C124.593 11.2995 124.464 11.3151 124.365 11.3281C124.126 11.3594 123.902 11.4102 123.693 11.4805C123.488 11.5482 123.321 11.651 123.193 11.7891C123.068 11.9245 123.006 12.1094 123.006 12.3437C123.006 12.6641 123.124 12.9062 123.361 13.0703C123.601 13.2318 123.904 13.3125 124.271 13.3125ZM131.173 8V8.78125H128.063V8H131.173ZM128.97 6.5625H129.892V12.2812C129.892 12.5417 129.929 12.737 130.005 12.8672C130.083 12.9948 130.182 13.0807 130.302 13.125C130.424 13.1667 130.553 13.1875 130.688 13.1875C130.79 13.1875 130.873 13.1823 130.938 13.1719C131.004 13.1589 131.056 13.1484 131.095 13.1406L131.282 13.9687C131.22 13.9922 131.132 14.0156 131.021 14.0391C130.909 14.0651 130.767 14.0781 130.595 14.0781C130.334 14.0781 130.079 14.0221 129.829 13.9102C129.582 13.7982 129.376 13.6276 129.212 13.3984C129.05 13.1693 128.97 12.8802 128.97 12.5312V6.5625ZM135.011 14.125C134.433 14.125 133.934 13.9974 133.515 13.7422C133.098 13.4844 132.776 13.125 132.55 12.6641C132.326 12.2005 132.214 11.6615 132.214 11.0469C132.214 10.4323 132.326 9.89062 132.55 9.42187C132.776 8.95052 133.091 8.58333 133.495 8.32031C133.901 8.05469 134.375 7.92188 134.917 7.92188C135.229 7.92188 135.538 7.97396 135.843 8.07812C136.147 8.18229 136.425 8.35156 136.675 8.58594C136.925 8.81771 137.124 9.125 137.272 9.50781C137.421 9.89062 137.495 10.362 137.495 10.9219V11.3125H132.87V10.5156H136.558C136.558 10.1771 136.49 9.875 136.354 9.60937C136.222 9.34375 136.032 9.13411 135.784 8.98047C135.539 8.82682 135.25 8.75 134.917 8.75C134.55 8.75 134.232 8.84115 133.964 9.02344C133.698 9.20312 133.494 9.4375 133.351 9.72656C133.207 10.0156 133.136 10.3255 133.136 10.6562V11.1875C133.136 11.6406 133.214 12.0247 133.37 12.3398C133.529 12.6523 133.749 12.8906 134.03 13.0547C134.312 13.2161 134.638 13.2969 135.011 13.2969C135.253 13.2969 135.472 13.263 135.667 13.1953C135.865 13.125 136.035 13.0208 136.179 12.8828C136.322 12.7422 136.433 12.5677 136.511 12.3594L137.401 12.6094C137.308 12.9115 137.15 13.1771 136.929 13.4062C136.707 13.6328 136.434 13.8099 136.108 13.9375C135.783 14.0625 135.417 14.125 135.011 14.125ZM138.897 14V8H139.788V8.90625H139.851C139.96 8.60938 140.158 8.36849 140.444 8.18359C140.731 7.9987 141.054 7.90625 141.413 7.90625C141.481 7.90625 141.565 7.90755 141.667 7.91016C141.769 7.91276 141.845 7.91667 141.897 7.92188V8.85937C141.866 8.85156 141.795 8.83984 141.683 8.82422C141.573 8.80599 141.457 8.79687 141.335 8.79687C141.043 8.79687 140.783 8.85807 140.554 8.98047C140.327 9.10026 140.147 9.26693 140.015 9.48047C139.884 9.69141 139.819 9.93229 139.819 10.2031V14H138.897Z" fill="white"/>
</g>
<defs>
<linearGradient id="paint0_linear_4_14" x1="0" y1="0" x2="0" y2="20" gradientUnits="userSpaceOnUse">
<stop stop-color="#BBBBBB" stop-opacity="0.1"/>
<stop offset="1" stop-opacity="0.1"/>
</linearGradient>
</defs>
</svg>
